<!DOCTYPE svg PUBLIC "-//W3C//DTD SVG 1.1//EN" "http://www.w3.org/Graphics/SVG/1.1/DTD/svg11.dtd">
<!-- Uploaded to: SVG Repo, www.svgrepo.com, Transformed by: SVG Repo Mixer Tools -->
<svg fill="#ffffff" width="115px" height="115px" viewBox="0 0 24.00 24.00" xmlns="http://www.w3.org/2000/svg" stroke="#ffffff" stroke-width="0.00024000000000000003">
<g id="SVGRepo_bgCarrier" stroke-width="0"/>
<g id="SVGRepo_tracerCarrier" stroke-linecap="round" stroke-linejoin="round" stroke="#CCCCCC" stroke-width="0.096"/>
<g id="SVGRepo_iconCarrier">
<path d="M22,7a4,4,0,0,1-4,4H5A1,1,0,0,1,5,9H18a2,2,0,1,0-2-2,1,1,0,0,1-2,0,4,4,0,0,1,8,0Zm-4,6H7a1,1,0,0,0,0,2H18a2,2,0,1,1-2,2,1,1,0,0,0-2,0,4,4,0,1,0,4-4ZM8,19a1,1,0,0,0,0-2H3a1,1,0,0,0,0,2ZM2,6A1,1,0,0,0,3,7h8a1,1,0,0,0,0-2H3A1,1,0,0,0,2,6Z"/>
</g>
</svg>